<?xml version="1.0" encoding="utf-8"?>
<!-- Generator: Adobe Illustrator 23.0.2, SVG Export Plug-In . SVG Version: 6.00 Build 0)  -->
<svg version="1.1" id="Layer_1" xmlns="http://www.w3.org/2000/svg" xmlns:xlink="http://www.w3.org/1999/xlink" x="0px" y="0px"
	 viewBox="0 0 174 173" style="enable-background:new 0 0 174 173;" xml:space="preserve">
<style type="text/css">
	.st0{fill:#FFFFFF;}
</style>
<title>Scroll Down — Scroll</title>
<desc>Created with Sketch.</desc>
<g>
	<path class="st0" d="M24.2,26.8l0.7-0.6l6.4,1.6V28l-3.9-4.3l0.7-0.7l4.9,5.3l-0.7,0.6L26,27.4v-0.2l3.8,4.2l-0.7,0.7L24.2,26.8z"
		/>
	<path class="st0" d="M30,21.2l0.8-0.6l4.4,5.7l-0.8,0.6L30,21.2z M30.4,20.9l3.3-2.7l0.6,0.7L31,21.6L30.4,20.9z M32.3,23.4
		l2.8-2.4l0.6,0.7l-2.8,2.4L32.3,23.4z M34.3,25.9l3.3-2.7l0.6,0.7l-3.3,2.7L34.3,25.9z"/>
	<path class="st0" d="M39.1,19.2l-0.3-0.1l-4.1-1.9l1-0.6l3.1,1.5l0.3,0.1l4.3,2l-1,0.6L39.1,19.2z M38.5,18.5l-0.2-3.6l1-0.6
		l0.2,4.7l0.2,4l-1,0.6L38.5,18.5z"/>
	<path class="st0" d="M39.9,13.7l4.5-2.7l0.5,0.8l-4.5,2.7L39.9,13.7z M42,13.1l0.9-0.5l3.3,5.8l-0.9,0.5L42,13.1z"/>
	<path class="st0" d="M48.5,8.8l0.9-0.4l2.9,6.8l-0.9,0.4L48.5,8.8z M50.3,11.9l2.1-0.9c0.2-0.1,0.4-0.2,0.5-0.4
		c0.1-0.2,0.2-0.3,0.2-0.6c0-0.2,0-0.4-0.1-0.6c-0.1-0.2-0.2-0.4-0.4-0.5c-0.2-0.1-0.3-0.2-0.5-0.2s-0.4,0-0.6,0.1l-2.1,0.9L49,8.6
		l2.1-0.9c0.4-0.2,0.8-0.3,1.2-0.2c0.4,0,0.7,0.2,1,0.4c0.3,0.2,0.5,0.5,0.7,0.9s0.2,0.8,0.2,1.2c0,0.4-0.2,0.7-0.4,1
		c-0.2,0.3-0.5,0.5-0.9,0.7l-2.1,0.9L50.3,11.9z"/>
	<path class="st0" d="M55,5.9l1-0.3l2.3,7l-1,0.3L55,5.9z M56.4,8.8L58.8,8c0.2-0.1,0.3-0.2,0.4-0.3c0.1-0.1,0.2-0.3,0.2-0.5
		s0-0.4-0.1-0.6C59.2,6.3,59.1,6.1,59,6c-0.1-0.1-0.3-0.2-0.5-0.3s-0.3,0-0.5,0l-2.4,0.8l-0.2-0.8l2.3-0.8c0.4-0.1,0.8-0.2,1.1-0.1
		c0.3,0.1,0.7,0.2,0.9,0.4s0.5,0.5,0.6,0.9c0.1,0.4,0.2,0.8,0.1,1.1c-0.1,0.4-0.2,0.7-0.5,0.9c-0.2,0.3-0.6,0.5-1,0.6l-2.3,0.8
		L56.4,8.8z M58.6,8.9l0.9-0.5l2.9,2.7l-1.1,0.4L58.6,8.9z"/>
	<path class="st0" d="M64.7,10.1c-0.4-0.1-0.8-0.3-1.1-0.7C63.3,9,63.1,8.6,63,8l-0.5-2c-0.1-0.5-0.1-1,0-1.5s0.3-0.8,0.6-1.1
		s0.7-0.5,1.2-0.6c0.5-0.1,1-0.1,1.4,0c0.4,0.1,0.8,0.3,1.1,0.7s0.5,0.7,0.6,1.4l0.5,2c0.1,0.5,0.1,1,0,1.5
		c-0.1,0.4-0.3,0.8-0.6,1.1s-0.7,0.5-1.2,0.6C65.6,10.3,65.2,10.3,64.7,10.1z M66.6,8.7C66.8,8.5,66.9,8.3,67,8
		c0.1-0.3,0.1-0.6,0-0.9L66.5,5c-0.1-0.3-0.2-0.6-0.4-0.8c-0.2-0.2-0.4-0.3-0.7-0.4c-0.3-0.1-0.5-0.1-0.8,0S64.1,4,63.9,4.2
		c-0.2,0.2-0.3,0.4-0.4,0.7c-0.1,0.3-0.1,0.6,0,0.9L64,7.9c0.1,0.3,0.2,0.6,0.4,0.8c0.2,0.2,0.4,0.3,0.7,0.4c0.3,0.1,0.5,0.1,0.8,0
		C66.2,9,66.4,8.9,66.6,8.7z"/>
	<path class="st0" d="M70.3,8.8c-0.3-0.1-0.6-0.3-0.9-0.5l0.7-0.7c0.1,0.1,0.3,0.2,0.5,0.3C70.8,8,71,8,71.2,7.9
		c0.4-0.1,0.7-0.2,0.8-0.5c0.2-0.3,0.2-0.6,0.1-1.1l-0.8-5l1-0.2l0.8,5c0.1,0.5,0.1,0.9,0,1.4c-0.1,0.4-0.3,0.7-0.6,0.9
		c-0.3,0.2-0.7,0.4-1.2,0.5C71,8.9,70.7,8.9,70.3,8.8z"/>
	<path class="st0" d="M74.8,0.7l1-0.1L76.5,8l-1,0.1L74.8,0.7z M75.3,0.7l4.2-0.4l0.1,0.9l-4.2,0.4L75.3,0.7z M75.6,4l3.6-0.4
		l0.1,0.9l-3.6,0.4L75.6,4z M76,7.1l4.2-0.4l0.1,0.9L76.1,8L76,7.1z"/>
	<path class="st0" d="M83.4,7.5c0,0-0.2-0.1-0.6-0.3s-0.7-0.5-0.9-0.9c-0.2-0.4-0.3-0.9-0.4-1.5l-0.1-2c0-0.5,0.1-1,0.3-1.5
		c0.2-0.4,0.5-0.7,0.9-1C83,0.1,83.5,0,84,0c0.4,0,0.8,0.1,1.2,0.2s0.7,0.4,0.9,0.7c0.2,0.3,0.4,0.7,0.5,1.1h-1
		c-0.1-0.2-0.2-0.4-0.3-0.6C85.1,1.2,85,1.1,84.8,1c-0.2-0.1-0.4-0.1-0.6-0.1c-0.3,0-0.6,0.1-0.8,0.2c-0.4,0.2-0.6,0.4-0.7,0.7
		c-0.1,0.3-0.2,0.6-0.2,0.9l0.1,2c0,0.3,0.1,0.6,0.2,0.9s0.3,0.4,0.5,0.6c0.2,0.1,0.5,0.2,0.8,0.2c0.2,0,0.4-0.1,0.6-0.1
		s0.4-0.2,0.5-0.4s0.2-0.4,0.3-0.6h1c-0.1,0.4-0.2,0.8-0.5,1.1c-0.2,0.3-0.5,0.6-0.9,0.8c-0.3,0.2-0.7,0.3-1.1,0.3
		C83.6,7.5,83.4,7.5,83.4,7.5z"/>
	<path class="st0" d="M87.5,0l5.2,0.2v0.9l-5.2-0.2V0z M89.6,0.7h1l-0.3,6.8h-1L89.6,0.7z"/>
	<path class="st0" d="M99.9,5.4l-0.1,0.9l-3.3-0.5l0.1-0.9L99.9,5.4z"/>
	<path class="st0" d="M105.9,2.3l0.9,0.2l2.1,6.4L108.8,9l1.4-5.6l1,0.3l-1.8,7.2l-0.9-0.2l-2.1-6.3l0.1-0.1l-1.4,5.6l-1-0.3
		L105.9,2.3z"/>
	<path class="st0" d="M113.5,4.5l1,0.3l-2.3,7l-1-0.3L113.5,4.5z M111.9,10.6l4,1.5l-0.3,0.9l-4-1.5L111.9,10.6z M112.9,7.6l3.4,1.2
		L116,9.8l-3.4-1.2L112.9,7.6z M114,4.6l4,1.5L117.7,7l-4-1.5L114,4.6z"/>
	<path class="st0" d="M120.2,10.5l2.9-2.1l1.1,0.5l-3.8,2.6l-3.1,2.3l-1.1-0.5L120.2,10.5z M119.9,11.4v-0.3l-0.7-4.6l1.1,0.5
		l0.5,3.5v0.3l0.7,4.8l-1.1-0.5L119.9,11.4z"/>
	<path class="st0" d="M126.4,10.7l0.9,0.5l-3,6l-0.9-0.5L126.4,10.7z M124.8,9.1l4.6,2.5l-0.4,0.8l-4.6-2.5L124.8,9.1z"/>
	<path class="st0" d="M133.4,14.1l0.9,0.6l-4,6.1l-0.8-0.6L133.4,14.1z M131.9,17.4l1.9,1.4c0.2,0.1,0.4,0.2,0.6,0.2
		c0.2,0,0.4,0,0.6-0.1c0.2-0.1,0.3-0.3,0.5-0.5c0.1-0.2,0.2-0.4,0.2-0.6c0-0.2,0-0.4-0.1-0.6s-0.2-0.3-0.4-0.5l-1.9-1.4l0.5-0.8
		l1.9,1.4c0.4,0.2,0.6,0.5,0.8,0.9c0.2,0.3,0.2,0.7,0.2,1.1c0,0.4-0.2,0.7-0.4,1.1c-0.2,0.4-0.5,0.6-0.9,0.8
		c-0.3,0.2-0.7,0.2-1.1,0.2s-0.7-0.2-1.1-0.4l-1.9-1.4L131.9,17.4z"/>
	<path class="st0" d="M139.2,18.3l0.8,0.6l-4.5,5.7l-0.8-0.6L139.2,18.3z M137.6,21.2l1.9,1.7c0.2,0.1,0.3,0.2,0.5,0.2
		s0.3,0,0.5-0.1c0.2-0.1,0.3-0.2,0.5-0.4c0.1-0.2,0.2-0.3,0.3-0.5c0-0.2,0-0.4,0-0.5c-0.1-0.2-0.2-0.3-0.3-0.4l-1.9-1.7l0.6-0.7
		l1.9,1.6c0.3,0.3,0.6,0.6,0.7,0.9c0.1,0.3,0.2,0.7,0.1,1c-0.1,0.4-0.2,0.7-0.5,1s-0.5,0.5-0.9,0.7c-0.3,0.1-0.7,0.2-1,0.1
		c-0.3-0.1-0.7-0.2-1-0.5l-1.9-1.6L137.6,21.2z M138.6,23.1l0.9,0.5l-0.7,4.1l-0.9-0.8L138.6,23.1z"/>
	<path class="st0" d="M140.9,29.1c-0.1-0.4-0.1-0.9,0-1.4c0.1-0.4,0.4-0.8,0.7-1.2l1.4-1.6c0.4-0.4,0.8-0.6,1.2-0.8
		c0.4-0.1,0.9-0.2,1.3,0s0.8,0.3,1.2,0.7c0.4,0.4,0.6,0.7,0.7,1.2c0.1,0.4,0.1,0.9,0,1.4c-0.1,0.4-0.4,0.8-0.7,1.2l-1.4,1.6
		c-0.4,0.4-0.8,0.6-1.2,0.8c-0.4,0.1-0.9,0.2-1.3,0c-0.4-0.1-0.8-0.3-1.2-0.7C141.3,30,141,29.6,140.9,29.1z M143,30
		c0.3,0.1,0.5,0.1,0.8,0c0.3-0.1,0.5-0.2,0.7-0.5l1.4-1.6c0.2-0.2,0.4-0.5,0.4-0.7c0.1-0.3,0.1-0.5,0-0.8c-0.1-0.3-0.2-0.5-0.4-0.7
		s-0.5-0.3-0.7-0.4c-0.2-0.1-0.5-0.1-0.8,0c-0.3,0.1-0.5,0.2-0.7,0.5l-1.4,1.6c-0.2,0.2-0.4,0.5-0.4,0.7c-0.1,0.3-0.1,0.5,0,0.8
		s0.2,0.5,0.4,0.7C142.5,29.8,142.8,29.9,143,30z"/>
	<path class="st0" d="M144.9,33.5c-0.1-0.3-0.1-0.7,0-1l1,0.2c-0.1,0.2-0.1,0.4,0,0.6c0.1,0.2,0.2,0.4,0.3,0.5
		c0.3,0.3,0.6,0.4,0.9,0.5c0.3,0,0.7-0.1,1-0.4l3.6-3.3l0.7,0.8l-3.6,3.3c-0.4,0.3-0.7,0.5-1.1,0.6c-0.4,0.1-0.7,0.1-1.1-0.1
		c-0.4-0.1-0.7-0.4-1-0.7C145.2,34.1,145,33.8,144.9,33.5z"/>
	<path class="st0" d="M153.9,33.2l0.6,0.8l-5.6,4.5l-0.6-0.8L153.9,33.2z M149.3,37.4l2.5,3.4l-0.8,0.6l-2.5-3.4L149.3,37.4z
		 M151.7,35.6l2.2,3l-0.8,0.6l-2.2-3L151.7,35.6z M154.2,33.6l2.5,3.4l-0.8,0.6l-2.5-3.4L154.2,33.6z"/>
	<path class="st0" d="M152.8,44.3c0,0,0-0.2,0-0.7c0-0.4,0.1-0.9,0.3-1.4s0.6-0.7,1-1l1.6-1c0.4-0.3,0.9-0.4,1.3-0.5
		c0.5,0,0.9,0,1.3,0.3c0.4,0.2,0.7,0.5,1,0.9c0.2,0.4,0.4,0.7,0.4,1.1c0,0.4,0,0.8-0.2,1.1c-0.2,0.3-0.4,0.7-0.7,1l-0.6-0.9
		c0.2-0.2,0.3-0.4,0.3-0.6c0.1-0.2,0.1-0.4,0.1-0.7c0-0.3-0.1-0.4-0.2-0.6c-0.2-0.3-0.4-0.4-0.6-0.5c-0.2-0.1-0.5-0.2-0.8-0.1
		c-0.3,0-0.6,0.1-0.8,0.3l-1.6,1c-0.3,0.2-0.5,0.4-0.6,0.6c-0.1,0.2-0.2,0.5-0.2,0.8c0,0.3,0.1,0.5,0.2,0.8c0.1,0.2,0.3,0.3,0.4,0.5
		c0.2,0.1,0.4,0.2,0.6,0.2c0.2,0,0.5,0,0.7-0.1l0.6,0.9c-0.4,0.2-0.8,0.2-1.2,0.2s-0.8-0.1-1.1-0.3c-0.3-0.2-0.6-0.5-0.8-0.8
		C152.9,44.5,152.8,44.3,152.8,44.3z"/>
	<path class="st0" d="M161.6,46.4l0.5,0.9l-5.8,3.2l-0.5-0.9L161.6,46.4z M161.1,44.2l2.4,4.7l-0.8,0.4l-2.4-4.7L161.1,44.2z"/>
	<path class="st0" d="M162.9,58l-0.9,0.4l-1.3-3.2l0.9-0.4L162.9,58z"/>
	<path class="st0" d="M168.5,62l0.2,0.9l-4.4,5l-0.2-0.1l5.4-1.5l0.3,1l-6.9,1.9l-0.2-0.9l4.3-5l0.2,0.1l-5.4,1.5l-0.3-1L168.5,62z"
		/>
	<path class="st0" d="M170.4,70l0.2,1l-7,1.1l-0.2-1L170.4,70z M164.4,71.5l0.7,4.3l-0.9,0.2l-0.7-4.3L164.4,71.5z M167.4,71
		l0.6,3.7l-0.9,0.2l-0.6-3.7L167.4,71z M170.4,70.5l0.7,4.3l-0.9,0.2l-0.7-4.3L170.4,70.5z"/>
	<path class="st0" d="M168.4,79l3.2,1.7l0.1,1.1l-4-2.2l-3.4-1.8l-0.1-1.1L168.4,79z M167.5,79.1l0.2-0.2l3.5-2.8l0.1,1.1l-2.7,2.1
		l-0.3,0.2l-3.7,2.9l-0.1-1.1L167.5,79.1z"/>
	<path class="st0" d="M171.2,84.7v1l-6.5,0.1v-1L171.2,84.7z M171.7,82.5l0.1,5.4h-0.9l-0.1-5.4H171.7z"/>
	<path class="st0" d="M171.5,92.8l-0.1,1l-7.1-0.8l0.1-1L171.5,92.8z M168,93l-0.3,2.4c0,0.2,0,0.4,0.1,0.6c0.1,0.2,0.2,0.3,0.4,0.4
		c0.2,0.1,0.4,0.2,0.6,0.2c0.2,0,0.5,0,0.7-0.1c0.2-0.1,0.4-0.2,0.5-0.3c0.1-0.1,0.2-0.3,0.2-0.6l0.3-2.4l0.9,0.1l-0.3,2.4
		c0,0.4-0.2,0.8-0.4,1.1c-0.2,0.3-0.5,0.5-0.8,0.7c-0.3,0.1-0.7,0.2-1.2,0.1c-0.4,0-0.8-0.2-1.1-0.4s-0.5-0.5-0.7-0.9
		c-0.1-0.3-0.2-0.7-0.1-1.2l0.3-2.4L168,93z"/>
	<path class="st0" d="M166.2,101.9v1l-3.8,1.1l0.3-1.2L166.2,101.9z M170.5,100.2l-0.2,1l-7-1.6l0.2-1L170.5,100.2z M167.4,100
		l-0.5,2.5c0,0.2,0,0.4,0,0.5c0.1,0.2,0.2,0.3,0.3,0.4s0.3,0.2,0.5,0.2s0.4,0,0.6,0s0.3-0.1,0.5-0.3c0.1-0.1,0.2-0.3,0.2-0.5
		l0.5-2.5l0.9,0.2l-0.5,2.5c-0.1,0.4-0.2,0.8-0.5,1c-0.3,0.2-0.5,0.5-0.9,0.6c-0.3,0.1-0.7,0.1-1.1,0c-0.4-0.1-0.7-0.2-1-0.5
		c-0.3-0.2-0.5-0.5-0.6-0.9c-0.1-0.3-0.1-0.7,0-1.1l0.5-2.5L167.4,100z"/>
	<path class="st0" d="M162,106.7c0.3-0.3,0.7-0.5,1.1-0.6c0.4-0.1,0.9-0.1,1.4,0.1l1.9,0.6c0.5,0.2,0.9,0.4,1.2,0.7
		c0.3,0.3,0.5,0.7,0.6,1.1s0.1,0.9-0.1,1.5c-0.2,0.5-0.4,0.9-0.7,1.2c-0.3,0.3-0.7,0.5-1.1,0.6c-0.4,0.1-0.9,0.1-1.4-0.1l-1.9-0.6
		c-0.5-0.2-0.9-0.4-1.2-0.7c-0.3-0.3-0.5-0.7-0.6-1.1c-0.1-0.4-0.1-0.9,0.1-1.5S161.7,107.1,162,106.7z M162.2,109
		c0.1,0.3,0.2,0.5,0.4,0.7c0.2,0.2,0.4,0.3,0.7,0.4l2,0.6c0.3,0.1,0.6,0.1,0.9,0.1c0.3,0,0.5-0.2,0.7-0.3c0.2-0.2,0.3-0.4,0.4-0.7
		c0.1-0.3,0.1-0.6,0-0.8c-0.1-0.3-0.2-0.5-0.4-0.7s-0.4-0.3-0.7-0.4l-2-0.6c-0.3-0.1-0.6-0.1-0.9-0.1s-0.5,0.2-0.7,0.3
		c-0.2,0.2-0.3,0.4-0.4,0.7C162.2,108.5,162.1,108.8,162.2,109z"/>
	<path class="st0" d="M160.1,112.3c0.3-0.2,0.6-0.4,0.9-0.5l0.2,1c-0.2,0-0.3,0.1-0.5,0.2c-0.2,0.1-0.3,0.3-0.4,0.5
		c-0.1,0.4-0.2,0.7,0,1c0.1,0.3,0.4,0.5,0.8,0.7l4.5,1.9l-0.4,1l-4.5-1.9c-0.5-0.2-0.8-0.4-1.1-0.7c-0.3-0.3-0.4-0.6-0.4-1
		s0-0.8,0.2-1.2C159.7,112.9,159.9,112.6,160.1,112.3z"/>
	<path class="st0" d="M158.6,118.2l-1.9,4l-0.8-0.4l1.9-4L158.6,118.2z M164.3,120.6l-0.5,0.9l-6.4-3.3l0.5-0.9L164.3,120.6z
		 M161.3,119.6l-1.6,3.4l-0.8-0.4l1.6-3.4L161.3,119.6z M164.1,121l-1.9,4l-0.8-0.4l1.9-4L164.1,121z"/>
	<path class="st0" d="M154.2,124.4c0,0,0.2-0.1,0.6-0.3s0.8-0.3,1.3-0.3s0.9,0.2,1.4,0.5l1.7,1c0.5,0.3,0.8,0.6,1,1s0.3,0.8,0.3,1.2
		c0,0.4-0.2,0.9-0.4,1.4c-0.2,0.4-0.5,0.6-0.8,0.8c-0.3,0.2-0.7,0.3-1.1,0.4s-0.8,0-1.2-0.2l0.5-0.9c0.2,0.1,0.4,0.1,0.7,0
		c0.2,0,0.4-0.1,0.6-0.2c0.2-0.1,0.3-0.3,0.4-0.5c0.2-0.3,0.2-0.5,0.2-0.8s-0.1-0.5-0.2-0.8c-0.2-0.2-0.4-0.4-0.7-0.6l-1.7-1
		c-0.3-0.2-0.6-0.3-0.8-0.3c-0.3,0-0.5,0-0.8,0.1c-0.3,0.1-0.4,0.3-0.6,0.6c-0.1,0.2-0.2,0.4-0.2,0.6c0,0.2,0,0.4,0.1,0.6
		c0.1,0.2,0.2,0.4,0.4,0.6l-0.5,0.9c-0.3-0.3-0.5-0.6-0.7-1c-0.1-0.4-0.2-0.8-0.2-1.1c0-0.4,0.2-0.8,0.4-1.1
		C154.1,124.6,154.2,124.4,154.2,124.4z"/>
	<path class="st0" d="M156.3,133.6l-0.6,0.8l-5.3-4l0.6-0.8L156.3,133.6z M158,132.2l-3,4.4l-0.8-0.6l3-4.4L158,132.2z"/>
	<path class="st0" d="M146.8,139.9l-0.7-0.6l2.3-2.6l0.7,0.6L146.8,139.9z"/>
	<path class="st0" d="M146,146.9l-0.7,0.6l-6.3-1.9v-0.2l3.7,4.4l-0.8,0.7l-4.7-5.5l0.7-0.6l6.2,1.8v0.2l-3.7-4.3l0.8-0.7L146,146.9
		z"/>
	<path class="st0" d="M135.9,147.3l-3.4,2.6l-0.5-0.7l3.4-2.6L135.9,147.3z M137.7,149.9l-2.9,2.3l-0.6-0.8l2.9-2.3L137.7,149.9z
		 M140,152.2l-0.8,0.6l-4.2-5.9l0.8-0.6L140,152.2z M139.6,152.5l-3.4,2.6l-0.6-0.8l3.4-2.6L139.6,152.5z"/>
	<path class="st0" d="M130.8,153.7l0.3,0.1l4,2l-1,0.6l-3-1.6l-0.3-0.1l-4.2-2.1l1-0.6L130.8,153.7z M131.4,154.6l0.1,3.7l-1,0.6
		v-4.7l-0.1-4l1-0.6V154.6z"/>
	<path class="st0" d="M127.7,159.8l-0.9,0.5l-3.1-6l0.9-0.5L127.7,159.8z M129.8,159.2l-4.6,2.5l-0.4-0.8l4.6-2.5L129.8,159.2z"/>
	<path class="st0" d="M119.3,160.7l-2.2,0.9c-0.2,0.1-0.4,0.2-0.5,0.4c-0.1,0.2-0.2,0.3-0.2,0.5c0,0.2,0,0.4,0.1,0.6
		s0.2,0.4,0.4,0.5c0.2,0.1,0.3,0.2,0.5,0.3c0.2,0.1,0.4,0,0.6-0.1l2.2-0.9l0.4,0.9l-2.1,0.9c-0.4,0.2-0.8,0.2-1.2,0.2
		c-0.4,0-0.7-0.2-1-0.4c-0.3-0.2-0.5-0.6-0.7-1c-0.2-0.4-0.2-0.8-0.2-1.2s0.2-0.7,0.4-1c0.2-0.3,0.6-0.5,1-0.7l2.1-0.9L119.3,160.7z
		 M121.1,163.8l-1,0.4l-2.6-6.9l1-0.4L121.1,163.8z"/>
	<path class="st0" d="M111,163.3l-0.9,0.5l-2.8-2.9l1.2-0.4L111,163.3z M113.1,163.4l-2.4,0.7c-0.2,0.1-0.3,0.2-0.5,0.3
		c-0.1,0.1-0.2,0.3-0.2,0.5c0,0.2,0,0.4,0.1,0.6c0.1,0.2,0.2,0.4,0.3,0.5c0.1,0.1,0.3,0.2,0.4,0.3s0.3,0,0.5,0l2.4-0.7l0.3,0.9
		l-2.3,0.7c-0.4,0.1-0.8,0.2-1.1,0.1c-0.4-0.1-0.7-0.2-0.9-0.5s-0.4-0.6-0.6-1c-0.1-0.4-0.1-0.8-0.1-1.1c0.1-0.3,0.2-0.7,0.5-0.9
		s0.6-0.4,1-0.6l2.3-0.7L113.1,163.4z M114.5,166.4l-1,0.3l-2.1-7.1l1-0.3L114.5,166.4z"/>
	<path class="st0" d="M104.9,161.8c0.4,0.1,0.8,0.4,1.1,0.7c0.3,0.3,0.5,0.8,0.6,1.4l0.4,2.1c0.1,0.5,0.1,1,0,1.5s-0.4,0.8-0.7,1.1
		c-0.3,0.3-0.8,0.5-1.2,0.6c-0.5,0.1-1,0.1-1.4,0c-0.4-0.1-0.8-0.4-1.1-0.7c-0.3-0.3-0.5-0.8-0.6-1.4l-0.4-2.1c-0.1-0.5-0.1-1,0-1.5
		c0.1-0.4,0.4-0.8,0.7-1.1c0.3-0.3,0.8-0.5,1.2-0.6C104,161.6,104.4,161.6,104.9,161.8z M103,163.2c-0.2,0.2-0.3,0.4-0.4,0.7
		c-0.1,0.3-0.1,0.6,0,0.9l0.4,2.1c0.1,0.3,0.2,0.6,0.4,0.8c0.2,0.2,0.4,0.4,0.6,0.4c0.3,0.1,0.5,0.1,0.8,0c0.3-0.1,0.5-0.2,0.7-0.4
		c0.2-0.2,0.3-0.4,0.4-0.7c0.1-0.3,0.1-0.6,0-0.9l-0.4-2.1c-0.1-0.3-0.2-0.6-0.4-0.8c-0.2-0.2-0.4-0.4-0.6-0.4
		c-0.3-0.1-0.5-0.1-0.8,0S103.2,163,103,163.2z"/>
	<path class="st0" d="M99.2,162.9c0.3,0.1,0.6,0.3,0.9,0.5l-0.8,0.7c-0.1-0.1-0.3-0.2-0.5-0.3s-0.4-0.1-0.6,0
		c-0.4,0.1-0.7,0.2-0.9,0.5c-0.2,0.3-0.2,0.6-0.2,1.1l0.7,5l-1,0.1l-0.7-5c-0.1-0.5,0-0.9,0.1-1.4c0.1-0.4,0.3-0.7,0.7-0.9
		s0.7-0.4,1.2-0.4C98.5,162.7,98.9,162.8,99.2,162.9z"/>
	<path class="st0" d="M93.5,164.4l-4.2,0.3l-0.1-0.9l4.2-0.3L93.5,164.4z M94,170.8l-4.2,0.3l-0.1-0.9l4.2-0.3L94,170.8z
		 M93.7,167.6l-3.6,0.2l-0.1-0.9l3.6-0.2L93.7,167.6z M94.4,170.8l-1,0.1l-0.5-7.4l1-0.1L94.4,170.8z"/>
	<path class="st0" d="M86.1,163.7c0,0,0.2,0.1,0.6,0.3c0.4,0.2,0.7,0.5,0.9,0.9c0.2,0.4,0.3,0.9,0.3,1.5v2c0,0.5-0.1,1-0.3,1.5
		c-0.2,0.4-0.5,0.7-0.9,0.9c-0.4,0.2-0.8,0.3-1.3,0.3c-0.4,0-0.8-0.1-1.2-0.3c-0.3-0.2-0.6-0.4-0.9-0.8c-0.2-0.3-0.4-0.7-0.5-1.1
		h1.1c0.1,0.2,0.2,0.4,0.3,0.6c0.1,0.2,0.3,0.3,0.5,0.4c0.2,0.1,0.4,0.1,0.6,0.2c0.3,0,0.6-0.1,0.8-0.2c0.2-0.1,0.4-0.3,0.5-0.6
		c0.1-0.3,0.2-0.5,0.2-0.9v-2c0-0.3-0.1-0.6-0.2-0.9c-0.1-0.3-0.3-0.5-0.5-0.6s-0.5-0.2-0.8-0.2c-0.2,0-0.4,0-0.6,0.1
		c-0.2,0.1-0.4,0.2-0.5,0.4c-0.2,0.2-0.3,0.4-0.3,0.6h-1.1c0.1-0.4,0.3-0.8,0.5-1.1c0.2-0.3,0.5-0.6,0.9-0.7
		c0.4-0.2,0.7-0.2,1.2-0.2C85.9,163.6,86.1,163.7,86.1,163.7z"/>
	<path class="st0" d="M81.7,171l-5.1-0.4l0.1-0.9l5.1,0.4L81.7,171z M79.7,170.3l-1-0.1l0.5-6.8l1,0.1L79.7,170.3z"/>
	<path class="st0" d="M72.5,165.7l0.1-0.9l3.3,0.5l-0.1,0.9L72.5,165.7z"/>
	<path class="st0" d="M66.6,168.9l-0.9-0.2l-2.1-6.4l0.1-0.1l-1.4,5.6l-1-0.3l1.8-7.2l0.9,0.3l2.1,6.3L66,167l1.4-5.6l1,0.3
		L66.6,168.9z"/>
	<path class="st0" d="M58.5,166.5l-4-1.5l0.3-0.9l4,1.5L58.5,166.5z M59.5,163.4l-3.4-1.2l0.3-0.9l3.4,1.2L59.5,163.4z M60.5,160.5
		l-4-1.5l0.3-0.9l4,1.5L60.5,160.5z M59,166.6l-1-0.3l2.4-7l1,0.3L59,166.6z"/>
	<path class="st0" d="M52.2,160.6l-2.9,2.1l-1.1-0.5l3.8-2.6l3.1-2.3l1.1,0.5L52.2,160.6z M52.6,159.7v0.3l0.7,4.6l-1.1-0.5
		l-0.4-3.5v-0.3l-0.8-4.8l1.1,0.5L52.6,159.7z"/>
	<path class="st0" d="M47.6,161.8l-4.6-2.5l0.4-0.8L48,161L47.6,161.8z M46,160.4l-0.9-0.5l3-6l0.9,0.5L46,160.4z"/>
	<path class="st0" d="M40.6,153.7l-1.9-1.4c-0.2-0.1-0.4-0.2-0.6-0.2c-0.2,0-0.4,0-0.6,0.1c-0.2,0.1-0.3,0.3-0.5,0.5
		c-0.1,0.2-0.2,0.4-0.2,0.6c0,0.2,0,0.4,0.1,0.6c0.1,0.2,0.2,0.3,0.4,0.5l1.9,1.4l-0.5,0.8l-1.9-1.4c-0.4-0.2-0.6-0.5-0.8-0.9
		c-0.2-0.3-0.2-0.7-0.2-1.1c0-0.4,0.2-0.7,0.4-1.1c0.2-0.4,0.5-0.6,0.9-0.8c0.3-0.2,0.7-0.2,1.1-0.2s0.7,0.2,1.1,0.4l1.9,1.4
		L40.6,153.7z M39.1,157l-0.8-0.6l4-6.1l0.8,0.6L39.1,157z"/>
	<path class="st0" d="M34.9,149.9l-1.9-1.7c-0.2-0.1-0.3-0.2-0.5-0.2s-0.3,0-0.5,0.1s-0.3,0.2-0.5,0.4c-0.2,0.2-0.2,0.3-0.3,0.5
		c0,0.2,0,0.4,0,0.5c0.1,0.2,0.2,0.3,0.3,0.4l1.9,1.7l-0.6,0.7l-1.9-1.6c-0.3-0.3-0.6-0.6-0.7-0.9s-0.2-0.7-0.1-1
		c0.1-0.4,0.2-0.7,0.5-1c0.3-0.3,0.6-0.5,0.9-0.7c0.3-0.2,0.7-0.2,1-0.1c0.4,0.1,0.7,0.2,1,0.5l1.9,1.6L34.9,149.9z M33.3,152.7
		l-0.8-0.6l4.5-5.7l0.8,0.6L33.3,152.7z M33.8,148l-0.9-0.5l0.7-4.1l0.9,0.8L33.8,148z"/>
	<path class="st0" d="M31.6,141.9c0.1,0.4,0.1,0.9,0,1.4s-0.4,0.8-0.7,1.2l-1.4,1.5c-0.4,0.4-0.8,0.6-1.2,0.8
		c-0.4,0.2-0.9,0.1-1.3,0s-0.8-0.3-1.2-0.7c-0.4-0.4-0.6-0.7-0.7-1.2s-0.1-0.9,0-1.4c0.1-0.4,0.4-0.8,0.7-1.2l1.4-1.5
		c0.4-0.4,0.8-0.6,1.2-0.8c0.4-0.2,0.9-0.1,1.3,0s0.8,0.3,1.2,0.7C31.2,141.1,31.4,141.4,31.6,141.9z M29.4,141
		c-0.3-0.1-0.5-0.1-0.8,0s-0.5,0.2-0.7,0.5l-1.4,1.6c-0.2,0.2-0.4,0.5-0.4,0.7c-0.1,0.3-0.1,0.5,0,0.8c0.1,0.3,0.2,0.5,0.4,0.7
		c0.2,0.2,0.5,0.3,0.7,0.4c0.3,0.1,0.5,0.1,0.8,0s0.5-0.2,0.7-0.5l1.4-1.6c0.2-0.2,0.4-0.5,0.4-0.7c0.1-0.3,0.1-0.5,0-0.8
		s-0.2-0.5-0.4-0.7C29.9,141.2,29.7,141.1,29.4,141z"/>
	<path class="st0" d="M27.6,137.6c0.1,0.3,0.1,0.7,0,1l-1-0.2c0.1-0.2,0.1-0.4,0-0.6s-0.2-0.4-0.3-0.5c-0.3-0.3-0.6-0.5-0.9-0.5
		s-0.7,0.1-1,0.4l-3.6,3.3l-0.7-0.8l3.6-3.3c0.4-0.3,0.7-0.5,1.1-0.6s0.7-0.1,1.1,0.1c0.4,0.1,0.7,0.4,1,0.7
		C27.3,136.9,27.5,137.2,27.6,137.6z"/>
	<path class="st0" d="M18.3,137.4l-2.5-3.4l0.8-0.6l2.5,3.4L18.3,137.4z M18.6,137.8L18,137l5.7-4.5l0.6,0.8L18.6,137.8z
		 M20.8,135.4l-2.2-3l0.8-0.6l2.2,3L20.8,135.4z M23.2,133.5l-2.5-3.4l0.8-0.6l2.5,3.4L23.2,133.5z"/>
	<path class="st0" d="M19.7,126.6c0,0,0,0.2,0,0.7c0,0.4-0.1,0.9-0.3,1.4c-0.2,0.4-0.6,0.7-1,1l-1.6,1c-0.4,0.3-0.9,0.4-1.3,0.5
		c-0.5,0-0.9,0-1.3-0.3c-0.4-0.2-0.7-0.5-1-1c-0.2-0.4-0.4-0.7-0.4-1.1s0-0.8,0.2-1.1c0.1-0.4,0.4-0.7,0.7-1l0.6,0.9
		c-0.2,0.2-0.3,0.4-0.3,0.6c-0.1,0.2-0.1,0.4-0.1,0.7c0,0.2,0.1,0.4,0.2,0.6c0.2,0.3,0.4,0.4,0.6,0.5c0.2,0.1,0.5,0.2,0.8,0.1
		s0.6-0.1,0.8-0.3l1.6-1c0.3-0.2,0.5-0.4,0.6-0.6s0.2-0.5,0.2-0.8s-0.1-0.5-0.2-0.8c-0.1-0.2-0.3-0.3-0.4-0.5
		c-0.2-0.1-0.4-0.2-0.6-0.2s-0.5,0-0.7,0.1l-0.6-0.9c0.4-0.2,0.8-0.2,1.2-0.2s0.8,0.1,1.1,0.4s0.6,0.5,0.8,0.8
		C19.6,126.4,19.7,126.6,19.7,126.6z"/>
	<path class="st0" d="M11.4,126.8L9,122l0.8-0.4l2.4,4.8L11.4,126.8z M10.9,124.6l-0.5-0.9l5.8-3.2l0.5,0.9L10.9,124.6z"/>
	<path class="st0" d="M9.7,112.9l0.9-0.3l1.2,3.2l-0.9,0.3L9.7,112.9z"/>
	<path class="st0" d="M4.1,109l-0.2-0.9l4.4-4.9l0.2,0.1L3,104.8l-0.2-1l6.9-1.9l0.2,0.9l-4.4,4.9l-0.2-0.1l5.4-1.5l0.2,1L4.1,109z"
		/>
	<path class="st0" d="M2.2,100.7l-0.7-4.2l0.9-0.2l0.7,4.2L2.2,100.7z M2.3,101.2l-0.2-1l7-1.2l0.2,1L2.3,101.2z M5.3,100.2
		l-0.6-3.6l0.9-0.2l0.6,3.6L5.3,100.2z M8.3,99.7l-0.7-4.2l0.9-0.2l0.7,4.2L8.3,99.7z"/>
	<path class="st0" d="M4.2,92.4L1,90.9l-0.1-1.1l4,2.1l3.4,1.7l0.1,1.1L4.2,92.4z M5.1,92.3l-0.2,0.2l-3.5,2.7l-0.1-1.1L4,92
		l0.2-0.2L8,89l0.1,1.1L5.1,92.3z"/>
	<path class="st0" d="M0.9,89l-0.1-5.2h0.9L1.8,89H0.9z M1.5,86.9v-1L8,85.8v1L1.5,86.9z"/>
	<path class="st0" d="M1.1,79l0.1-1l7.1,0.8l-0.1,1L1.1,79z M4.5,78.9l0.2-2.4c0-0.2,0-0.4-0.1-0.6s-0.2-0.3-0.4-0.4
		c-0.2-0.1-0.4-0.2-0.6-0.2c-0.2,0-0.5,0-0.7,0.1c-0.2,0.1-0.4,0.2-0.5,0.3c-0.1,0.2-0.2,0.3-0.2,0.5L2,78.6l-0.8-0.1l0.2-2.3
		c0-0.4,0.2-0.8,0.4-1.1c0.2-0.3,0.5-0.5,0.8-0.7c0.3-0.1,0.7-0.2,1.2-0.1c0.4,0,0.8,0.2,1.1,0.4c0.3,0.2,0.5,0.5,0.7,0.8
		c0.1,0.3,0.2,0.7,0.1,1.1l-0.2,2.3L4.5,78.9z"/>
	<path class="st0" d="M1.9,71.8l0.2-1l7,1.5l-0.2,1L1.9,71.8z M5.1,72l0.5-2.5c0-0.2,0-0.4,0-0.5c-0.1-0.2-0.2-0.3-0.3-0.4
		c-0.1-0.1-0.3-0.2-0.5-0.2s-0.4,0-0.6,0c-0.2,0-0.3,0.1-0.4,0.3c-0.1,0.1-0.2,0.3-0.2,0.5l-0.5,2.5L2,71.4L2.5,69
		c0.1-0.4,0.2-0.7,0.5-1s0.5-0.5,0.8-0.6c0.3-0.1,0.7-0.1,1.1,0c0.4,0.1,0.7,0.2,1,0.5c0.3,0.2,0.5,0.5,0.6,0.9
		c0.1,0.4,0.1,0.7,0,1.1L6,72.2L5.1,72z M6.2,70.3v-1l3.7-1.1l-0.2,1.2L6.2,70.3z"/>
	<path class="st0" d="M10.3,65.5C10,65.8,9.6,66,9.2,66.1c-0.4,0.1-0.9,0.1-1.4-0.1l-1.9-0.6C5.4,65.3,5,65,4.7,64.7
		C4.4,64.3,4.1,64,4,63.5s-0.1-0.8,0-1.4s0.4-0.9,0.7-1.2c0.3-0.3,0.7-0.5,1.1-0.6s0.9-0.1,1.4,0.1L9.1,61c0.5,0.1,0.9,0.4,1.2,0.7
		c0.3,0.3,0.5,0.7,0.6,1.1s0.1,0.9-0.1,1.4C10.9,64.8,10.6,65.2,10.3,65.5z M10.1,63.2c-0.1-0.3-0.2-0.5-0.4-0.7s-0.5-0.3-0.8-0.4
		l-2-0.6c-0.3-0.1-0.6-0.1-0.9-0.1s-0.5,0.2-0.7,0.3c-0.2,0.1-0.2,0.5-0.3,0.8c-0.1,0.3-0.1,0.5,0,0.8c0,0.2,0.2,0.4,0.4,0.6
		c0.2,0.2,0.5,0.3,0.8,0.4l2,0.6c0.3,0.1,0.6,0.1,0.9,0.1c0.3,0,0.5-0.2,0.7-0.3c0.2-0.1,0.3-0.4,0.4-0.7
		C10.1,63.7,10.1,63.4,10.1,63.2z"/>
	<path class="st0" d="M12.1,60c-0.3,0.2-0.5,0.4-0.9,0.5l-0.3-1c0.2,0,0.3-0.1,0.5-0.2c0.1-0.1,0.3-0.3,0.3-0.5c0.1-0.4,0.1-0.7,0-1
		c-0.1-0.3-0.4-0.5-0.8-0.7l-4.5-1.8l0.4-0.9l4.5,1.8c0.5,0.2,0.8,0.4,1.1,0.7s0.4,0.6,0.5,1s0,0.8-0.2,1.2
		C12.5,59.5,12.3,59.8,12.1,60z"/>
	<path class="st0" d="M7.7,52L8.1,51l6.4,3.1l-0.4,0.9L7.7,52z M7.9,51.6l1.8-3.8l0.9,0.4L8.8,52L7.9,51.6z M10.7,52.9l1.5-3.3
		l0.9,0.4l-1.5,3.3L10.7,52.9z M13.5,54.3l1.8-3.8l0.9,0.4l-1.8,3.8L13.5,54.3z"/>
	<path class="st0" d="M17.6,48.1c0,0-0.2,0.1-0.6,0.3c-0.4,0.2-0.8,0.3-1.2,0.3c-0.4,0-0.9-0.2-1.4-0.4l-1.7-1c-0.5-0.3-0.8-0.6-1-1
		s-0.4-0.8-0.4-1.2s0.1-0.9,0.4-1.4c0.2-0.4,0.5-0.6,0.8-0.8c0.3-0.2,0.7-0.3,1.1-0.4c0.4,0,0.8,0,1.2,0.2l-0.5,0.9
		c-0.2-0.1-0.4-0.1-0.7,0c-0.2,0-0.4,0.1-0.6,0.2c-0.2,0.1-0.3,0.3-0.4,0.5c-0.1,0.3-0.2,0.5-0.2,0.8s0.1,0.5,0.3,0.7
		c0.2,0.2,0.4,0.4,0.7,0.6l1.7,1c0.3,0.2,0.6,0.3,0.9,0.3c0.3,0,0.5,0,0.8-0.1c0.2-0.1,0.4-0.3,0.6-0.6c0.1-0.2,0.2-0.4,0.2-0.6
		c0-0.2,0-0.4-0.1-0.6c-0.1-0.2-0.2-0.4-0.4-0.6l0.5-0.9c0.3,0.3,0.6,0.6,0.7,1c0.2,0.4,0.2,0.7,0.2,1.1s-0.1,0.7-0.3,1.1
		C17.8,47.9,17.6,48.1,17.6,48.1z"/>
	<path class="st0" d="M13.6,40.5l2.8-4.3l0.8,0.5l-2.8,4.3L13.6,40.5z M15.2,39.2l0.6-0.8l5.4,3.8L20.6,43L15.2,39.2z"/>
	<path class="st0" d="M24.4,32.8l0.7,0.6L23,36.1l-0.7-0.6L24.4,32.8z"/>
</g>
</svg>
